<svg width="62" height="62" viewBox="0 0 62 62" fill="none" xmlns="http://www.w3.org/2000/svg">
<mask id="mask0_10768_48884" style="mask-type:alpha" maskUnits="userSpaceOnUse" x="19" y="19" width="24" height="24">
<rect x="19" y="19" width="24" height="24" fill="#6B7280"/>
</mask>
<g mask="url(#mask0_10768_48884)">
<path d="M28.5869 34.464H15.8556C15.031 34.464 14.335 34.1804 13.7678 33.6132C13.2006 33.046 12.917 32.3501 12.917 31.5255C12.917 30.7009 13.2006 30.0049 13.7678 29.4377C14.335 28.8705 15.031 28.5869 15.8556 28.5869H28.5869V15.8556C28.5869 15.031 28.8705 14.335 29.4377 13.7678C30.0049 13.2006 30.7009 12.917 31.5255 12.917C32.3501 12.917 33.046 13.2006 33.6132 13.7678C34.1804 14.335 34.464 15.031 34.464 15.8556V28.5869H47.1953C48.0199 28.5869 48.7159 28.8705 49.2831 29.4377C49.8503 30.0049 50.1339 30.7009 50.1339 31.5255C50.1339 32.3501 49.8503 33.046 49.2831 33.6132C48.7159 34.1804 48.0199 34.464 47.1953 34.464H34.464V47.1953C34.464 48.0199 34.1804 48.7159 33.6132 49.2831C33.046 49.8503 32.3501 50.1339 31.5255 50.1339C30.7009 50.1339 30.0049 49.8503 29.4377 49.2831C28.8705 48.7159 28.5869 48.0199 28.5869 47.1953V34.464Z" fill="#502FF8"/>
</g>
</svg>
