<svg width="43" height="43" viewBox="0 0 43 43" fill="none" xmlns="http://www.w3.org/2000/svg">
<path d="M21.4997 39.4163C19.0212 39.4163 16.692 38.946 14.5122 38.0054C12.3323 37.0648 10.4361 35.7882 8.82363 34.1757C7.21113 32.5632 5.93457 30.667 4.99395 28.4872C4.05332 26.3073 3.58301 23.9781 3.58301 21.4997C3.58301 19.0212 4.05332 16.692 4.99395 14.5122C5.93457 12.3323 7.21113 10.4361 8.82363 8.82363C10.4361 7.21113 12.3323 5.93457 14.5122 4.99395C16.692 4.05332 19.0212 3.58301 21.4997 3.58301C23.9781 3.58301 26.3073 4.05332 28.4872 4.99395C30.667 5.93457 32.5632 7.21113 34.1757 8.82363C35.7882 10.4361 37.0648 12.3323 38.0054 14.5122C38.946 16.692 39.4163 19.0212 39.4163 21.4997V24.0976C39.4163 25.8594 38.8117 27.3599 37.6023 28.5992C36.3929 29.8384 34.9073 30.458 33.1455 30.458C32.1004 30.458 31.115 30.234 30.1893 29.7861C29.2636 29.3382 28.4872 28.6962 27.8601 27.8601C26.9941 28.7261 26.0162 29.3755 24.9262 29.8085C23.8363 30.2415 22.6941 30.458 21.4997 30.458C19.0212 30.458 16.9085 29.5846 15.1617 27.8377C13.4148 26.0908 12.5413 23.9781 12.5413 21.4997C12.5413 19.0212 13.4148 16.9085 15.1617 15.1617C16.9085 13.4148 19.0212 12.5413 21.4997 12.5413C23.9781 12.5413 26.0908 13.4148 27.8377 15.1617C29.5846 16.9085 30.458 19.0212 30.458 21.4997V24.0976C30.458 24.874 30.7118 25.5309 31.2195 26.0684C31.7271 26.6059 32.3691 26.8747 33.1455 26.8747C33.9219 26.8747 34.5639 26.6059 35.0715 26.0684C35.5792 25.5309 35.833 24.874 35.833 24.0976V21.4997C35.833 17.4983 34.4445 14.109 31.6674 11.332C28.8903 8.55488 25.5011 7.16634 21.4997 7.16634C17.4983 7.16634 14.109 8.55488 11.332 11.332C8.55488 14.109 7.16634 17.4983 7.16634 21.4997C7.16634 25.5011 8.55488 28.8903 11.332 31.6674C14.109 34.4445 17.4983 35.833 21.4997 35.833H30.458V39.4163H21.4997ZM21.4997 26.8747C22.9927 26.8747 24.2618 26.3521 25.307 25.307C26.3521 24.2618 26.8747 22.9927 26.8747 21.4997C26.8747 20.0066 26.3521 18.7375 25.307 17.6924C24.2618 16.6472 22.9927 16.1247 21.4997 16.1247C20.0066 16.1247 18.7375 16.6472 17.6924 17.6924C16.6472 18.7375 16.1247 20.0066 16.1247 21.4997C16.1247 22.9927 16.6472 24.2618 17.6924 25.307C18.7375 26.3521 20.0066 26.8747 21.4997 26.8747Z" fill="#3E31CB"/>
</svg>
