<svg width="47" height="47" viewBox="0 0 47 47" fill="none" xmlns="http://www.w3.org/2000/svg">
<path d="M31.3337 15.6667V9.79167H15.667V15.6667H11.7503V5.875H35.2503V15.6667H31.3337ZM35.2503 24.4792C35.8052 24.4792 36.2703 24.2915 36.6456 23.9161C37.021 23.5408 37.2087 23.0757 37.2087 22.5208C37.2087 21.966 37.021 21.5009 36.6456 21.1255C36.2703 20.7502 35.8052 20.5625 35.2503 20.5625C34.6955 20.5625 34.2304 20.7502 33.855 21.1255C33.4797 21.5009 33.292 21.966 33.292 22.5208C33.292 23.0757 33.4797 23.5408 33.855 23.9161C34.2304 24.2915 34.6955 24.4792 35.2503 24.4792ZM31.3337 37.2083V29.375H15.667V37.2083H31.3337ZM35.2503 41.125H11.7503V33.2917H3.91699V21.5417C3.91699 19.8771 4.48817 18.4818 5.63053 17.3557C6.7729 16.2297 8.16005 15.6667 9.79199 15.6667H37.2087C38.8732 15.6667 40.2686 16.2297 41.3946 17.3557C42.5206 18.4818 43.0837 19.8771 43.0837 21.5417V33.2917H35.2503V41.125ZM39.167 29.375V21.5417C39.167 20.9868 38.9793 20.5217 38.604 20.1464C38.2286 19.771 37.7635 19.5833 37.2087 19.5833H9.79199C9.23713 19.5833 8.77203 19.771 8.39668 20.1464C8.02133 20.5217 7.83366 20.9868 7.83366 21.5417V29.375H11.7503V25.4583H35.2503V29.375H39.167Z" fill="#64748B"/>
</svg>
