<svg width="42" height="42" viewBox="0 0 42 42" fill="none" xmlns="http://www.w3.org/2000/svg">
<path d="M5.25 38.5V3.5L7.875 6.125L10.5 3.5L13.125 6.125L15.75 3.5L18.375 6.125L21 3.5L23.625 6.125L26.25 3.5L28.875 6.125L31.5 3.5L34.125 6.125L36.75 3.5V38.5L34.125 35.875L31.5 38.5L28.875 35.875L26.25 38.5L23.625 35.875L21 38.5L18.375 35.875L15.75 38.5L13.125 35.875L10.5 38.5L7.875 35.875L5.25 38.5ZM10.5 29.75H31.5V26.25H10.5V29.75ZM10.5 22.75H31.5V19.25H10.5V22.75ZM10.5 15.75H31.5V12.25H10.5V15.75ZM8.75 33.425H33.25V8.575H8.75V33.425Z" fill="#64748B"/>
</svg>
