<svg width="45" height="45" viewBox="0 0 45 45" fill="none" xmlns="http://www.w3.org/2000/svg">
<path d="M11.25 41.25C9.6875 41.25 8.35938 40.7031 7.26562 39.6094C6.17188 38.5156 5.625 37.1875 5.625 35.625V30H11.25V3.75L14.0625 6.5625L16.875 3.75L19.6875 6.5625L22.5 3.75L25.3125 6.5625L28.125 3.75L30.9375 6.5625L33.75 3.75L36.5625 6.5625L39.375 3.75V35.625C39.375 37.1875 38.8281 38.5156 37.7344 39.6094C36.6406 40.7031 35.3125 41.25 33.75 41.25H11.25ZM33.75 37.5C34.2812 37.5 34.7266 37.3203 35.0859 36.9609C35.4453 36.6016 35.625 36.1562 35.625 35.625V9.375H15V30H31.875V35.625C31.875 36.1562 32.0547 36.6016 32.4141 36.9609C32.7734 37.3203 33.2188 37.5 33.75 37.5ZM16.875 16.875V13.125H28.125V16.875H16.875ZM16.875 22.5V18.75H28.125V22.5H16.875ZM31.875 16.875C31.3438 16.875 30.8984 16.6953 30.5391 16.3359C30.1797 15.9766 30 15.5312 30 15C30 14.4688 30.1797 14.0234 30.5391 13.6641C30.8984 13.3047 31.3438 13.125 31.875 13.125C32.4062 13.125 32.8516 13.3047 33.2109 13.6641C33.5703 14.0234 33.75 14.4688 33.75 15C33.75 15.5312 33.5703 15.9766 33.2109 16.3359C32.8516 16.6953 32.4062 16.875 31.875 16.875ZM31.875 22.5C31.3438 22.5 30.8984 22.3203 30.5391 21.9609C30.1797 21.6016 30 21.1562 30 20.625C30 20.0938 30.1797 19.6484 30.5391 19.2891C30.8984 18.9297 31.3438 18.75 31.875 18.75C32.4062 18.75 32.8516 18.9297 33.2109 19.2891C33.5703 19.6484 33.75 20.0938 33.75 20.625C33.75 21.1562 33.5703 21.6016 33.2109 21.9609C32.8516 22.3203 32.4062 22.5 31.875 22.5ZM11.25 37.5H28.125V33.75H9.375V35.625C9.375 36.1562 9.55469 36.6016 9.91406 36.9609C10.2734 37.3203 10.7188 37.5 11.25 37.5Z" fill="#3E31CB"/>
</svg>
