<svg width="44" height="44" viewBox="0 0 44 44" fill="none" xmlns="http://www.w3.org/2000/svg">
<mask id="mask0_10768_48883" style="mask-type:alpha" maskUnits="userSpaceOnUse" x="0" y="0" width="44" height="44">
<rect width="44" height="44" fill="#D9D9D9"/>
</mask>
<g mask="url(#mask0_10768_48883)">
<path d="M17.3289 29.5855C13.9324 29.5855 11.0551 28.4066 8.69711 26.0486C6.33914 23.6903 5.16016 20.813 5.16016 17.4168C5.16016 14.0205 6.33914 11.1433 8.69711 8.785C11.0551 6.42703 13.9324 5.24805 17.3289 5.24805C20.7252 5.24805 23.6023 6.42703 25.9602 8.785C28.3185 11.1433 29.4977 14.0205 29.4977 17.4168C29.4977 18.7759 29.2911 20.0458 28.878 21.2265C28.4646 22.4071 27.9059 23.4485 27.2019 24.3505L37.381 34.5406C37.7681 34.9351 37.9617 35.423 37.9617 36.0045C37.9617 36.5863 37.7645 37.0707 37.37 37.4579C36.9825 37.845 36.4963 38.0386 35.9111 38.0386C35.326 38.0386 34.8398 37.845 34.4527 37.4579L24.2846 27.2898C23.3752 27.9941 22.3266 28.5528 21.1386 28.9659C19.9506 29.379 18.6807 29.5855 17.3289 29.5855ZM17.3289 25.4147C19.5546 25.4147 21.444 24.6381 22.9971 23.085C24.5503 21.5322 25.3268 19.6428 25.3268 17.4168C25.3268 15.1908 24.5503 13.3014 22.9971 11.7486C21.444 10.1955 19.5546 9.41888 17.3289 9.41888C15.1029 9.41888 13.2134 10.1955 11.6602 11.7486C10.1074 13.3014 9.33099 15.1908 9.33099 17.4168C9.33099 19.6428 10.1074 21.5322 11.6602 23.085C13.2134 24.6381 15.1029 25.4147 17.3289 25.4147Z" fill="#502FF8"/>
</g>
</svg>
