<svg width="142" height="142" viewBox="0 0 142 142" fill="none" xmlns="http://www.w3.org/2000/svg">
<g clip-path="url(#clip0_10692_45833)">
<path fill-rule="evenodd" clip-rule="evenodd" d="M11.2105 0H130.789C133.763 0 136.614 1.18111 138.716 3.28349C140.819 5.38588 142 8.23731 142 11.2105V130.789C142 133.763 140.819 136.614 138.716 138.716C136.614 140.819 133.763 142 130.789 142H11.2105C8.23731 142 5.38588 140.819 3.28349 138.716C1.18111 136.614 0 133.763 0 130.789V11.2105C0 8.23731 1.18111 5.38588 3.28349 3.28349C5.38588 1.18111 8.23731 0 11.2105 0ZM80.1085 108.368V81.5192L104.183 33.6316H84.7329L71 66.0768L57.1644 33.6316H37.8169L61.8354 81.5192V108.368H80.1085ZM108.952 130.311V107.107H103.151L97.4406 110.597V115.945L102.517 112.908H102.653V130.311H108.952ZM116.767 129.484C118.3 130.451 120.121 130.938 122.228 130.946C124.336 130.946 126.152 130.466 127.678 129.507C129.211 128.54 130.394 127.147 131.225 125.326C132.055 123.506 132.471 121.315 132.471 118.754C132.478 116.209 132.067 114.045 131.236 112.262C130.405 110.479 129.223 109.123 127.689 108.194C126.156 107.258 124.336 106.789 122.228 106.789C120.121 106.789 118.3 107.254 116.767 108.183C115.241 109.112 114.063 110.468 113.232 112.251C112.408 114.033 111.993 116.201 111.985 118.754C111.978 121.3 112.39 123.483 113.22 125.303C114.051 127.124 115.234 128.517 116.767 129.484ZM124.902 124.125C124.207 125.258 123.316 125.825 122.228 125.825C121.503 125.825 120.857 125.575 120.291 125.077C119.732 124.578 119.294 123.808 118.976 122.765C118.659 121.715 118.504 120.378 118.512 118.754C118.527 116.367 118.878 114.623 119.566 113.52C120.253 112.417 121.141 111.866 122.228 111.866C122.953 111.866 123.595 112.111 124.154 112.602C124.713 113.085 125.151 113.833 125.469 114.845C125.786 115.858 125.945 117.161 125.945 118.754C125.952 121.194 125.605 122.984 124.902 124.125Z" fill="white"/>
</g>
<defs>
<clipPath id="clip0_10692_45833">
<rect width="142" height="142" fill="white"/>
</clipPath>
</defs>
</svg>
