<svg width="41" height="41" viewBox="0 0 41 41" fill="none" xmlns="http://www.w3.org/2000/svg">
<mask id="mask0_10701_47522" style="mask-type:alpha" maskUnits="userSpaceOnUse" x="0" y="0" width="41" height="41">
<rect width="41" height="41" fill="#D9D9D9"/>
</mask>
<g mask="url(#mask0_10701_47522)">
<path d="M11.9587 13.6665C11.0191 13.6665 10.2147 13.332 9.54564 12.6629C8.87654 11.9938 8.54199 11.1894 8.54199 10.2498V6.83317C8.54199 5.89359 8.87654 5.08925 9.54564 4.42015C10.2147 3.75105 11.0191 3.4165 11.9587 3.4165H29.042C29.9816 3.4165 30.7859 3.75105 31.455 4.42015C32.1241 5.08925 32.4587 5.89359 32.4587 6.83317V10.2498C32.4587 11.1894 32.1241 11.9938 31.455 12.6629C30.7859 13.332 29.9816 13.6665 29.042 13.6665H11.9587ZM13.667 10.2498H27.3337C27.7892 10.2498 28.1095 10.0434 28.2946 9.63057C28.4797 9.21772 28.7288 8.8547 29.042 8.5415C29.042 8.05748 28.8783 7.65175 28.5508 7.32432C28.2234 6.99689 27.8177 6.83317 27.3337 6.83317H13.667C13.183 6.83317 12.7772 6.99689 12.4498 7.32432C12.1224 7.65175 11.9587 8.05748 11.9587 8.5415C12.2719 8.8547 12.521 9.21772 12.7061 9.63057C12.8911 10.0434 13.2114 10.2498 13.667 10.2498ZM6.83366 37.5832C5.89408 37.5832 5.08974 37.2486 4.42064 36.5795C3.75154 35.9104 3.41699 35.1061 3.41699 34.1665V32.4582H37.5837V34.1665C37.5837 35.1061 37.2491 35.9104 36.58 36.5795C35.9109 37.2486 35.1066 37.5832 34.167 37.5832H6.83366ZM3.41699 30.7498L9.35345 17.3821C9.63817 16.7557 10.0653 16.2646 10.6347 15.9087C11.2041 15.5528 11.8163 15.3748 12.4712 15.3748H28.5295C29.1844 15.3748 29.7965 15.5528 30.366 15.9087C30.9354 16.2646 31.3625 16.7557 31.6472 17.3821L37.5837 30.7498H3.41699ZM14.5212 27.3332H16.2295C16.4573 27.3332 16.6566 27.2478 16.8274 27.0769C16.9982 26.9061 17.0837 26.7068 17.0837 26.479C17.0837 26.2512 16.9982 26.0519 16.8274 25.8811C16.6566 25.7103 16.4573 25.6248 16.2295 25.6248H14.5212C14.2934 25.6248 14.0941 25.7103 13.9232 25.8811C13.7524 26.0519 13.667 26.2512 13.667 26.479C13.667 26.7068 13.7524 26.9061 13.9232 27.0769C14.0941 27.2478 14.2934 27.3332 14.5212 27.3332ZM14.5212 23.9165H16.2295C16.4573 23.9165 16.6566 23.8311 16.8274 23.6603C16.9982 23.4894 17.0837 23.2901 17.0837 23.0623C17.0837 22.8346 16.9982 22.6353 16.8274 22.4644C16.6566 22.2936 16.4573 22.2082 16.2295 22.2082H14.5212C14.2934 22.2082 14.0941 22.2936 13.9232 22.4644C13.7524 22.6353 13.667 22.8346 13.667 23.0623C13.667 23.2901 13.7524 23.4894 13.9232 23.6603C14.0941 23.8311 14.2934 23.9165 14.5212 23.9165ZM14.5212 20.4998H16.2295C16.4573 20.4998 16.6566 20.4144 16.8274 20.2436C16.9982 20.0728 17.0837 19.8734 17.0837 19.6457C17.0837 19.4179 16.9982 19.2186 16.8274 19.0478C16.6566 18.8769 16.4573 18.7915 16.2295 18.7915H14.5212C14.2934 18.7915 14.0941 18.8769 13.9232 19.0478C13.7524 19.2186 13.667 19.4179 13.667 19.6457C13.667 19.8734 13.7524 20.0728 13.9232 20.2436C14.0941 20.4144 14.2934 20.4998 14.5212 20.4998ZM19.6462 27.3332H21.3545C21.5823 27.3332 21.7816 27.2478 21.9524 27.0769C22.1232 26.9061 22.2087 26.7068 22.2087 26.479C22.2087 26.2512 22.1232 26.0519 21.9524 25.8811C21.7816 25.7103 21.5823 25.6248 21.3545 25.6248H19.6462C19.4184 25.6248 19.2191 25.7103 19.0482 25.8811C18.8774 26.0519 18.792 26.2512 18.792 26.479C18.792 26.7068 18.8774 26.9061 19.0482 27.0769C19.2191 27.2478 19.4184 27.3332 19.6462 27.3332ZM19.6462 23.9165H21.3545C21.5823 23.9165 21.7816 23.8311 21.9524 23.6603C22.1232 23.4894 22.2087 23.2901 22.2087 23.0623C22.2087 22.8346 22.1232 22.6353 21.9524 22.4644C21.7816 22.2936 21.5823 22.2082 21.3545 22.2082H19.6462C19.4184 22.2082 19.2191 22.2936 19.0482 22.4644C18.8774 22.6353 18.792 22.8346 18.792 23.0623C18.792 23.2901 18.8774 23.4894 19.0482 23.6603C19.2191 23.8311 19.4184 23.9165 19.6462 23.9165ZM19.6462 20.4998H21.3545C21.5823 20.4998 21.7816 20.4144 21.9524 20.2436C22.1232 20.0728 22.2087 19.8734 22.2087 19.6457C22.2087 19.4179 22.1232 19.2186 21.9524 19.0478C21.7816 18.8769 21.5823 18.7915 21.3545 18.7915H19.6462C19.4184 18.7915 19.2191 18.8769 19.0482 19.0478C18.8774 19.2186 18.792 19.4179 18.792 19.6457C18.792 19.8734 18.8774 20.0728 19.0482 20.2436C19.2191 20.4144 19.4184 20.4998 19.6462 20.4998ZM24.7712 27.3332H26.4795C26.7073 27.3332 26.9066 27.2478 27.0774 27.0769C27.2482 26.9061 27.3337 26.7068 27.3337 26.479C27.3337 26.2512 27.2482 26.0519 27.0774 25.8811C26.9066 25.7103 26.7073 25.6248 26.4795 25.6248H24.7712C24.5434 25.6248 24.3441 25.7103 24.1732 25.8811C24.0024 26.0519 23.917 26.2512 23.917 26.479C23.917 26.7068 24.0024 26.9061 24.1732 27.0769C24.3441 27.2478 24.5434 27.3332 24.7712 27.3332ZM24.7712 23.9165H26.4795C26.7073 23.9165 26.9066 23.8311 27.0774 23.6603C27.2482 23.4894 27.3337 23.2901 27.3337 23.0623C27.3337 22.8346 27.2482 22.6353 27.0774 22.4644C26.9066 22.2936 26.7073 22.2082 26.4795 22.2082H24.7712C24.5434 22.2082 24.3441 22.2936 24.1732 22.4644C24.0024 22.6353 23.917 22.8346 23.917 23.0623C23.917 23.2901 24.0024 23.4894 24.1732 23.6603C24.3441 23.8311 24.5434 23.9165 24.7712 23.9165ZM24.7712 20.4998H26.4795C26.7073 20.4998 26.9066 20.4144 27.0774 20.2436C27.2482 20.0728 27.3337 19.8734 27.3337 19.6457C27.3337 19.4179 27.2482 19.2186 27.0774 19.0478C26.9066 18.8769 26.7073 18.7915 26.4795 18.7915H24.7712C24.5434 18.7915 24.3441 18.8769 24.1732 19.0478C24.0024 19.2186 23.917 19.4179 23.917 19.6457C23.917 19.8734 24.0024 20.0728 24.1732 20.2436C24.3441 20.4144 24.5434 20.4998 24.7712 20.4998Z" fill="#3E31CB"/>
</g>
</svg>
