<svg width="35" height="39" viewBox="0 0 35 39" fill="none" xmlns="http://www.w3.org/2000/svg">
<path d="M11.8125 29.25L17.5 23.6167L23.1875 29.25L26.25 26.2167L20.5625 20.5833L26.25 14.95L23.1875 11.9167L17.5 17.55L11.8125 11.9167L8.75 14.95L14.4375 20.5833L8.75 26.2167L11.8125 29.25ZM6.5625 39C5.35938 39 4.32943 38.5757 3.47266 37.7271C2.61589 36.8785 2.1875 35.8583 2.1875 34.6667V6.5H0V2.16667H10.9375V0H24.0625V2.16667H35V6.5H32.8125V34.6667C32.8125 35.8583 32.3841 36.8785 31.5273 37.7271C30.6706 38.5757 29.6406 39 28.4375 39H6.5625ZM28.4375 6.5H6.5625V34.6667H28.4375V6.5Z" fill="#3E31CB"/>
</svg>
