<svg width="37" height="37" viewBox="0 0 37 37" fill="none" xmlns="http://www.w3.org/2000/svg">
<path d="M32.6428 10.5021C33.4579 9.68721 33.9159 8.5819 33.9161 7.42933C33.9162 6.27676 33.4585 5.17133 32.6436 4.35624C31.8287 3.54115 30.7234 3.08315 29.5708 3.08301C28.4183 3.08286 27.3128 3.54058 26.4977 4.35547L5.92266 24.9352C5.56471 25.2921 5.3 25.7315 5.15182 26.2148L3.11528 32.9241C3.07544 33.0574 3.07243 33.1991 3.10657 33.334C3.14072 33.4689 3.21074 33.592 3.30922 33.6903C3.40769 33.7886 3.53095 33.8585 3.6659 33.8924C3.80086 33.9263 3.94248 33.9231 4.07574 33.883L10.7866 31.848C11.2694 31.7012 11.7088 31.4381 12.0662 31.0818L32.6428 10.5021Z" stroke="#3E31CB" stroke-width="2" stroke-linecap="round" stroke-linejoin="round"/>
</svg>
