<svg width="49" height="49" viewBox="0 0 49 49" fill="none" xmlns="http://www.w3.org/2000/svg">
<path d="M8.16634 42.875C7.04342 42.875 6.08214 42.4752 5.28249 41.6755C4.48283 40.8759 4.08301 39.9146 4.08301 38.7917V10.2083C4.08301 9.08542 4.48283 8.12413 5.28249 7.32448C6.08214 6.52483 7.04342 6.125 8.16634 6.125H40.833C41.9559 6.125 42.9172 6.52483 43.7169 7.32448C44.5165 8.12413 44.9163 9.08542 44.9163 10.2083V38.7917C44.9163 39.9146 44.5165 40.8759 43.7169 41.6755C42.9172 42.4752 41.9559 42.875 40.833 42.875H8.16634ZM8.16634 38.7917H40.833V10.2083H8.16634V38.7917ZM10.208 34.7083H20.4163V30.625H10.208V34.7083ZM29.7059 30.625L39.8122 20.5188L36.9028 17.6094L29.7059 24.8573L26.7965 21.9479L23.9382 24.8573L29.7059 30.625ZM10.208 26.5417H20.4163V22.4583H10.208V26.5417ZM10.208 18.375H20.4163V14.2917H10.208V18.375Z" fill="#3E31CB"/>
</svg>
