<svg width="54" height="54" viewBox="0 0 54 54" fill="none" xmlns="http://www.w3.org/2000/svg">
<path d="M26.9998 49.5C21.1873 49.5 16.1436 47.5687 11.8686 43.7062C7.59355 39.8438 5.1748 35.025 4.6123 29.25H9.16855C9.73105 33.7875 11.7092 37.5469 15.1029 40.5281C18.4967 43.5094 22.4623 45 26.9998 45C32.0248 45 36.2811 43.2562 39.7686 39.7687C43.2561 36.2812 44.9998 32.025 44.9998 27C44.9998 21.975 43.2561 17.7188 39.7686 14.2312C36.2811 10.7437 32.0248 9 26.9998 9C23.7748 9 20.7842 9.79688 18.0279 11.3906C15.2717 12.9844 13.0873 15.1875 11.4748 18H17.9998V22.5H4.9498C6.0373 17.25 8.64355 12.9375 12.7686 9.5625C16.8936 6.1875 21.6373 4.5 26.9998 4.5C30.1123 4.5 33.0373 5.09062 35.7748 6.27187C38.5123 7.45312 40.8936 9.05625 42.9186 11.0812C44.9436 13.1062 46.5467 15.4875 47.7279 18.225C48.9092 20.9625 49.4998 23.8875 49.4998 27C49.4998 30.1125 48.9092 33.0375 47.7279 35.775C46.5467 38.5125 44.9436 40.8937 42.9186 42.9188C40.8936 44.9437 38.5123 46.5469 35.7748 47.7281C33.0373 48.9094 30.1123 49.5 26.9998 49.5ZM33.2998 36.45L24.7498 27.9V15.75H29.2498V26.1L36.4498 33.3L33.2998 36.45Z" fill="#3E31CB"/>
</svg>
