<svg width="82" height="80" viewBox="0 0 82 80" fill="none" xmlns="http://www.w3.org/2000/svg">
<ellipse cx="41" cy="39.6127" rx="41" ry="39.6127" fill="#D4CEFA"/>
<path d="M31.5 57C30.5717 57 29.6815 56.6313 29.0251 55.975C28.3687 55.3187 28 54.4286 28 53.5004V25.504C28 24.5758 28.3687 23.6857 29.0251 23.0294C29.6815 22.3731 30.5717 22.0044 31.5 22.0044H45.5C46.054 22.0035 46.6026 22.1122 47.1144 22.3242C47.6262 22.5362 48.091 22.8474 48.482 23.2397L54.761 29.518C55.1545 29.909 55.4665 30.3742 55.6792 30.8866C55.8919 31.3989 56.0009 31.9483 56 32.5031V53.5004C56 54.4286 55.6312 55.3187 54.9749 55.975C54.3185 56.6313 53.4283 57 52.5 57H31.5Z" stroke="#3E31CB" stroke-width="3" stroke-linecap="round" stroke-linejoin="round"/>
<path d="M43.647 22.0044V33.3851C43.647 33.9887 43.8639 34.5677 44.25 34.9946C44.6361 35.4214 45.1598 35.6612 45.7058 35.6612H55.9999" stroke="#3E31CB" stroke-width="3" stroke-linecap="round" stroke-linejoin="round"/>
</svg>
