<svg width="39" height="39" viewBox="0 0 39 39" fill="none" xmlns="http://www.w3.org/2000/svg">
<path d="M22.75 21.125C21.3958 21.125 20.2448 20.651 19.2969 19.7031C18.349 18.7552 17.875 17.6042 17.875 16.25C17.875 14.8958 18.349 13.7448 19.2969 12.7969C20.2448 11.849 21.3958 11.375 22.75 11.375C24.1042 11.375 25.2552 11.849 26.2031 12.7969C27.151 13.7448 27.625 14.8958 27.625 16.25C27.625 17.6042 27.151 18.7552 26.2031 19.7031C25.2552 20.651 24.1042 21.125 22.75 21.125ZM11.375 26C10.4812 26 9.71615 25.6818 9.07969 25.0453C8.44323 24.4089 8.125 23.6438 8.125 22.75V9.75C8.125 8.85625 8.44323 8.09115 9.07969 7.45469C9.71615 6.81823 10.4812 6.5 11.375 6.5H34.125C35.0187 6.5 35.7839 6.81823 36.4203 7.45469C37.0568 8.09115 37.375 8.85625 37.375 9.75V22.75C37.375 23.6438 37.0568 24.4089 36.4203 25.0453C35.7839 25.6818 35.0187 26 34.125 26H11.375ZM14.625 22.75H30.875C30.875 21.8563 31.1932 21.0911 31.8297 20.4547C32.4661 19.8182 33.2312 19.5 34.125 19.5V13C33.2312 13 32.4661 12.6818 31.8297 12.0453C31.1932 11.4089 30.875 10.6438 30.875 9.75H14.625C14.625 10.6438 14.3068 11.4089 13.6703 12.0453C13.0339 12.6818 12.2687 13 11.375 13V19.5C12.2687 19.5 13.0339 19.8182 13.6703 20.4547C14.3068 21.0911 14.625 21.8563 14.625 22.75ZM32.5 32.5H4.875C3.98125 32.5 3.21615 32.1818 2.57969 31.5453C1.94323 30.9089 1.625 30.1438 1.625 29.25V11.375H4.875V29.25H32.5V32.5Z" fill="#3328A7"/>
</svg>
