<svg width="80" height="80" viewBox="0 0 80 80" fill="none" xmlns="http://www.w3.org/2000/svg">
<ellipse cx="40" cy="39.6127" rx="40" ry="39.6127" fill="#E7EEF7"/>
<path d="M45.7355 60.6698C42.4017 60.6698 39.5618 59.5081 37.2157 57.1848C34.8697 54.8615 33.6967 52.0491 33.6967 48.7475V47.6928C31.042 47.2649 28.8348 46.0344 27.0753 44.0015C25.3158 41.9686 24.436 39.5765 24.436 36.8252V25.82H29.9924V23.9858H33.6967V31.3226H29.9924V29.4884H28.1403V36.8252C28.1403 38.8428 28.8657 40.57 30.3165 42.0068C31.7674 43.4436 33.5115 44.162 35.5488 44.162C37.5862 44.162 39.3302 43.4436 40.7811 42.0068C42.2319 40.57 42.9573 38.8428 42.9573 36.8252V29.4884H41.1052V31.3226H37.4009V23.9858H41.1052V25.82H46.6616V36.8252C46.6616 39.5765 45.7818 41.9686 44.0223 44.0015C42.2628 46.0344 40.0557 47.2649 37.4009 47.6928V48.7475C37.4009 51.0402 38.2113 52.9891 39.8319 54.594C41.4525 56.1989 43.4204 57.0014 45.7355 57.0014C48.0507 57.0014 50.0186 56.1989 51.6392 54.594C53.2598 52.9891 54.0701 51.0402 54.0701 48.7475V45.6752C52.9897 45.3084 52.1022 44.6511 51.4077 43.7035C50.7131 42.7558 50.3659 41.6858 50.3659 40.4936C50.3659 38.9651 50.9061 37.6659 51.9865 36.5959C53.0669 35.526 54.3788 34.991 55.9223 34.991C57.4657 34.991 58.7776 35.526 59.858 36.5959C60.9384 37.6659 61.4786 38.9651 61.4786 40.4936C61.4786 41.6858 61.1314 42.7558 60.4368 43.7035C59.7423 44.6511 58.8548 45.3084 57.7744 45.6752V48.7475C57.7744 52.0491 56.6014 54.8615 54.2553 57.1848C51.9093 59.5081 49.0694 60.6698 45.7355 60.6698ZM55.9223 42.3278C56.447 42.3278 56.8869 42.152 57.2419 41.8005C57.5969 41.4489 57.7744 41.0133 57.7744 40.4936C57.7744 39.9739 57.5969 39.5383 57.2419 39.1867C56.8869 38.8352 56.447 38.6594 55.9223 38.6594C55.3975 38.6594 54.9576 38.8352 54.6026 39.1867C54.2476 39.5383 54.0701 39.9739 54.0701 40.4936C54.0701 41.0133 54.2476 41.4489 54.6026 41.8005C54.9576 42.152 55.3975 42.3278 55.9223 42.3278Z" fill="#64748B"/>
</svg>
