<svg width="39" height="39" viewBox="0 0 39 39" fill="none" xmlns="http://www.w3.org/2000/svg">
<mask id="mask0_10768_48882" style="mask-type:alpha" maskUnits="userSpaceOnUse" x="0" y="0" width="39" height="39">
<rect width="39" height="39" fill="#D9D9D9"/>
</mask>
<g mask="url(#mask0_10768_48882)">
<path d="M21.3486 35.0189V31.5455H24.8221V35.0189H21.3486ZM17.8752 31.5455V22.9736H21.3486V31.5455H17.8752ZM31.4679 26.3695V19.5002H34.9414V26.3695H31.4679ZM27.9945 19.5002V16.0268H31.4679V19.5002H27.9945ZM7.45488 22.9736V19.5002H10.9283V22.9736H7.45488ZM3.98145 19.5002V16.0268H7.45488V19.5002H3.98145ZM19.5002 7.45488V3.98145H22.9736V7.45488H19.5002ZM6.71998 11.6632H11.6632V6.71998H6.71998V11.6632ZM3.98145 12.5533V5.82988C3.98145 5.31124 4.15979 4.87343 4.51648 4.51648C4.87343 4.15979 5.31124 3.98145 5.82988 3.98145H12.5533C13.072 3.98145 13.5098 4.15979 13.8667 4.51648C14.2234 4.87343 14.4018 5.31124 14.4018 5.82988V12.5533C14.4018 13.072 14.2234 13.5098 13.8667 13.8667C13.5098 14.2234 13.072 14.4018 12.5533 14.4018H5.82988C5.31124 14.4018 4.87343 14.2234 4.51648 13.8667C4.15979 13.5098 3.98145 13.072 3.98145 12.5533ZM6.71998 32.2804H11.6632V27.3372H6.71998V32.2804ZM3.98145 33.1705V26.4471C3.98145 25.9284 4.15979 25.4906 4.51648 25.1337C4.87343 24.777 5.31124 24.5986 5.82988 24.5986H12.5533C13.072 24.5986 13.5098 24.777 13.8667 25.1337C14.2234 25.4906 14.4018 25.9284 14.4018 26.4471V33.1705C14.4018 33.6892 14.2234 34.127 13.8667 34.4839C13.5098 34.8406 13.072 35.0189 12.5533 35.0189H5.82988C5.31124 35.0189 4.87343 34.8406 4.51648 34.4839C4.15979 34.127 3.98145 33.6892 3.98145 33.1705ZM27.3372 11.6632H32.2804V6.71998H27.3372V11.6632ZM24.5986 12.5533V5.82988C24.5986 5.31124 24.777 4.87343 25.1337 4.51648C25.4906 4.15979 25.9284 3.98145 26.4471 3.98145H33.1705C33.6892 3.98145 34.127 4.15979 34.4839 4.51648C34.8406 4.87343 35.0189 5.31124 35.0189 5.82988V12.5533C35.0189 13.072 34.8406 13.5098 34.4839 13.8667C34.127 14.2234 33.6892 14.4018 33.1705 14.4018H26.4471C25.9284 14.4018 25.4906 14.2234 25.1337 13.8667C24.777 13.5098 24.5986 13.072 24.5986 12.5533ZM28.1497 35.0189V29.8429H24.7445V26.3695H31.4679V31.5455H34.9414V35.0189H28.1497ZM21.3486 22.9736V19.5002H27.9945V22.9736H21.3486ZM14.4018 22.9736V19.5002H10.9283V16.0268H21.3486V19.5002H17.8752V22.9736H14.4018ZM16.0268 14.4018V7.45488H19.5002V11.0059H22.9736V14.4018H16.0268ZM8.00698 10.3762V8.00698H10.3762V10.3762H8.00698ZM8.00698 30.9934V28.6242H10.3762V30.9934H8.00698ZM28.6242 10.3762V8.00698H30.9934V10.3762H28.6242Z" fill="#502FF8"/>
</g>
</svg>
