<svg width="51" height="49" viewBox="0 0 51 49" fill="none" xmlns="http://www.w3.org/2000/svg">
<path d="M47.0333 49L29.1833 31.85C27.7667 32.9389 26.1375 33.8009 24.2958 34.4361C22.4542 35.0713 20.4944 35.3889 18.4167 35.3889C13.2694 35.3889 8.91319 33.6762 5.34792 30.2507C1.78264 26.8252 0 22.6398 0 17.6944C0 12.7491 1.78264 8.56366 5.34792 5.13819C8.91319 1.71273 13.2694 0 18.4167 0C23.5639 0 27.9201 1.71273 31.4854 5.13819C35.0507 8.56366 36.8333 12.7491 36.8333 17.6944C36.8333 19.6907 36.5028 21.5736 35.8417 23.3431C35.1806 25.1125 34.2833 26.6778 33.15 28.0389L51 45.1889L47.0333 49ZM18.4167 29.9444C21.9583 29.9444 24.9687 28.7535 27.4479 26.3715C29.9271 23.9896 31.1667 21.0972 31.1667 17.6944C31.1667 14.2917 29.9271 11.3993 27.4479 9.01736C24.9687 6.63542 21.9583 5.44444 18.4167 5.44444C14.875 5.44444 11.8646 6.63542 9.38542 9.01736C6.90625 11.3993 5.66667 14.2917 5.66667 17.6944C5.66667 21.0972 6.90625 23.9896 9.38542 26.3715C11.8646 28.7535 14.875 29.9444 18.4167 29.9444Z" fill="#3E31CB"/>
</svg>
