<svg width="40" height="40" viewBox="0 0 40 40" fill="none" xmlns="http://www.w3.org/2000/svg">
<path d="M24.9997 26.6663H31.6663V19.9997H29.1663V24.1663H24.9997V26.6663ZM19.9997 24.9997C21.3886 24.9997 22.5691 24.5136 23.5413 23.5413C24.5136 22.5691 24.9997 21.3886 24.9997 19.9997C24.9997 18.6108 24.5136 17.4302 23.5413 16.458C22.5691 15.4858 21.3886 14.9997 19.9997 14.9997C18.6108 14.9997 17.4302 15.4858 16.458 16.458C15.4858 17.4302 14.9997 18.6108 14.9997 19.9997C14.9997 21.3886 15.4858 22.5691 16.458 23.5413C17.4302 24.5136 18.6108 24.9997 19.9997 24.9997ZM8.33301 19.9997H10.833V15.833H14.9997V13.333H8.33301V19.9997ZM3.33301 31.6663V8.33301H36.6663V31.6663H3.33301ZM6.66634 28.333H33.333V11.6663H6.66634V28.333Z" fill="#3328A7"/>
</svg>
